<svg xmlns="http://www.w3.org/2000/svg" xmlns:xlink="http://www.w3.org/1999/xlink" version="1.2" width="53.10mm" height="16.21mm" viewBox="8.5358 -0.0000 30.2149 9.2260">
<style type="text/css">
<![CDATA[
tspan { white-space: pre; }
]]>
</style>
<g color="rgb(100.0000%, 100.0000%, 100.0000%)">
<g transform="translate(8.5358, 6.0450)">
<line stroke-linejoin="round" stroke-linecap="round" stroke-width="0.1000" stroke="currentColor" x1="0.0500" y1="0" x2="30.2149" y2="0"/>
</g>
<g transform="translate(8.5358, 5.0450)">
<line stroke-linejoin="round" stroke-linecap="round" stroke-width="0.1000" stroke="currentColor" x1="0.0500" y1="0" x2="30.2149" y2="0"/>
</g>
<g transform="translate(8.5358, 4.0450)">
<line stroke-linejoin="round" stroke-linecap="round" stroke-width="0.1000" stroke="currentColor" x1="0.0500" y1="0" x2="30.2149" y2="0"/>
</g>
<g transform="translate(8.5358, 3.0450)">
<line stroke-linejoin="round" stroke-linecap="round" stroke-width="0.1000" stroke="currentColor" x1="0.0500" y1="0" x2="30.2149" y2="0"/>
</g>
<g transform="translate(8.5358, 2.0450)">
<line stroke-linejoin="round" stroke-linecap="round" stroke-width="0.1000" stroke="currentColor" x1="0.0500" y1="0" x2="30.2149" y2="0"/>
</g>
</g>
<g color="rgb(100.0000%, 100.0000%, 100.0000%)">
<g transform="translate(0.0000, 1.0450)">
<rect x="35.4724" y="-0.1000" width="1.9563" height="0.2000" ry="0.1000" fill="currentColor"/>
</g>
<g transform="translate(0.0000, 1.0450)">
<rect x="32.4701" y="-0.1000" width="1.9563" height="0.2000" ry="0.1000" fill="currentColor"/>
</g>
<g transform="translate(0.0000, 7.0450)">
<rect x="14.0098" y="-0.1000" width="1.9563" height="0.2000" ry="0.1000" fill="currentColor"/>
</g>
</g>
<g color="rgb(100.0000%, 100.0000%, 100.0000%)">
<a style="color:inherit;" xlink:href="textedit:///home/julian/julianjarjour.github.io/_lilypond/diatonicchords.ly:17:63:64">
<g transform="translate(29.7939, 4.5450)">
<path transform="scale(0.0040, -0.0040)" d="M218 136c66 0 108 -36 108 -89c0 -89 -113 -183 -218 -183c-66 0 -108 36 -108 89c0 89 113 183 218 183z" fill="currentColor"/>
</g>
</a>
</g>
<g color="rgb(100.0000%, 100.0000%, 100.0000%)">
<a style="color:inherit;" xlink:href="textedit:///home/julian/julianjarjour.github.io/_lilypond/diatonicchords.ly:17:65:66">
<g transform="translate(29.7939, 3.5450)">
<path transform="scale(0.0040, -0.0040)" d="M218 136c66 0 108 -36 108 -89c0 -89 -113 -183 -218 -183c-66 0 -108 36 -108 89c0 89 113 183 218 183z" fill="currentColor"/>
</g>
</a>
</g>
<g color="rgb(100.0000%, 100.0000%, 100.0000%)">
<a style="color:inherit;" xlink:href="textedit:///home/julian/julianjarjour.github.io/_lilypond/diatonicchords.ly:17:67:68">
<g transform="translate(29.7939, 2.5450)">
<path transform="scale(0.0040, -0.0040)" d="M218 136c66 0 108 -36 108 -89c0 -89 -113 -183 -218 -183c-66 0 -108 36 -108 89c0 89 113 183 218 183z" fill="currentColor"/>
</g>
</a>
</g>
<g color="rgb(100.0000%, 100.0000%, 100.0000%)">
<a style="color:inherit;" xlink:href="textedit:///home/julian/julianjarjour.github.io/_lilypond/diatonicchords.ly:17:69:70">
<g transform="translate(29.7939, 1.5450)">
<path transform="scale(0.0040, -0.0040)" d="M218 136c66 0 108 -36 108 -89c0 -89 -113 -183 -218 -183c-66 0 -108 36 -108 89c0 89 113 183 218 183z" fill="currentColor"/>
</g>
</a>
</g>
<g color="rgb(100.0000%, 100.0000%, 100.0000%)">
<a style="color:inherit;" xlink:href="textedit:///home/julian/julianjarjour.github.io/_lilypond/diatonicchords.ly:17:70:71">
<g transform="translate(30.0534, 7.7175)">
<path transform="scale(0.0022, -0.0022)" d="M176 226c-44 0 -47 -40 -47 -92s3 -91 47 -91c46 0 55 38 55 91s-9 92 -55 92zM129 257c14 8 30 12 47 12c103 0 176 -41 176 -135s-73 -134 -176 -134c-114 0 -176 124 -176 250c0 129 77 250 197 250c75 0 141 -52 141 -123c0 -32 -26 -58 -58 -58s-58 26 -58 58
c0 21 35 23 35 44c0 26 -31 36 -60 36c-61 0 -69 -60 -69 -129c0 -23 1 -48 1 -71z" fill="currentColor"/>
</g>
</a>
</g>
<g color="rgb(100.0000%, 100.0000%, 100.0000%)">
<a style="color:inherit;" xlink:href="textedit:///home/julian/julianjarjour.github.io/_lilypond/diatonicchords.ly:17:55:56">
<g transform="translate(26.7917, 3.0450)">
<path transform="scale(0.0040, -0.0040)" d="M218 136c66 0 108 -36 108 -89c0 -89 -113 -183 -218 -183c-66 0 -108 36 -108 89c0 89 113 183 218 183z" fill="currentColor"/>
</g>
</a>
</g>
<g color="rgb(100.0000%, 100.0000%, 100.0000%)">
<a style="color:inherit;" xlink:href="textedit:///home/julian/julianjarjour.github.io/_lilypond/diatonicchords.ly:17:58:59">
<g transform="translate(27.0511, 7.7198)">
<path transform="scale(0.0022, -0.0022)" d="M60 500c8 0 69 -14 131 -14c54 0 133 15 134 15c17 0 28 -12 28 -22c0 -13 -89 -100 -235 -100c-17 0 -30 -14 -30 -31v-41c25 25 62 25 97 25h5c115 0 181 -55 181 -166c0 -99 -96 -166 -202 -166c-88 0 -169 52 -169 133c0 32 26 58 58 58s58 -26 58 -58
c0 -22 -36 -26 -36 -48c0 -36 47 -42 89 -42c52 0 73 63 73 123c0 53 -6 112 -52 112c-133 0 -87 -44 -129 -44c-14 0 -27 10 -27 27v209c0 17 11 30 26 30z" fill="currentColor"/>
</g>
</a>
</g>
<g color="rgb(100.0000%, 100.0000%, 100.0000%)">
<a style="color:inherit;" xlink:href="textedit:///home/julian/julianjarjour.github.io/_lilypond/diatonicchords.ly:17:57:58">
<g transform="translate(26.7917, 2.0450)">
<path transform="scale(0.0040, -0.0040)" d="M218 136c66 0 108 -36 108 -89c0 -89 -113 -183 -218 -183c-66 0 -108 36 -108 89c0 89 113 183 218 183z" fill="currentColor"/>
</g>
</a>
</g>
<g color="rgb(100.0000%, 100.0000%, 100.0000%)">
<a style="color:inherit;" xlink:href="textedit:///home/julian/julianjarjour.github.io/_lilypond/diatonicchords.ly:17:94:95">
<g transform="translate(36.0408, 7.7310)">
<path transform="scale(0.0022, -0.0022)" d="M194 486c16 0 29 15 41 15c13 0 24 -13 24 -31v-341c0 -47 35 -86 81 -86c14 0 21 -10 21 -21s-7 -22 -21 -22c-49 0 -97 14 -146 14s-96 -14 -145 -14c-14 0 -22 11 -22 22s8 21 22 21c46 0 80 39 80 86v137c0 23 -16 35 -30 35c-7 0 -13 -4 -17 -11l-34 -65
c-5 -10 -14 -15 -23 -15c-14 0 -28 12 -28 27c0 4 1 8 3 13l129 250c2 4 7 6 11 6c18 0 37 -20 54 -20z" fill="currentColor"/>
</g>
</a>
</g>
<g color="rgb(100.0000%, 100.0000%, 100.0000%)">
<a style="color:inherit;" xlink:href="textedit:///home/julian/julianjarjour.github.io/_lilypond/diatonicchords.ly:17:75:76">
<g transform="translate(32.7962, 4.0450)">
<path transform="scale(0.0040, -0.0040)" d="M218 136c66 0 108 -36 108 -89c0 -89 -113 -183 -218 -183c-66 0 -108 36 -108 89c0 89 113 183 218 183z" fill="currentColor"/>
</g>
</a>
</g>
<g color="rgb(100.0000%, 100.0000%, 100.0000%)">
<a style="color:inherit;" xlink:href="textedit:///home/julian/julianjarjour.github.io/_lilypond/diatonicchords.ly:17:93:94">
<g transform="translate(35.7985, 0.5450)">
<path transform="scale(0.0040, -0.0040)" d="M218 136c66 0 108 -36 108 -89c0 -89 -113 -183 -218 -183c-66 0 -108 36 -108 89c0 89 113 183 218 183z" fill="currentColor"/>
</g>
</a>
</g>
<g color="rgb(100.0000%, 100.0000%, 100.0000%)">
<a style="color:inherit;" xlink:href="textedit:///home/julian/julianjarjour.github.io/_lilypond/diatonicchords.ly:17:91:92">
<g transform="translate(35.7985, 1.5450)">
<path transform="scale(0.0040, -0.0040)" d="M218 136c66 0 108 -36 108 -89c0 -89 -113 -183 -218 -183c-66 0 -108 36 -108 89c0 89 113 183 218 183z" fill="currentColor"/>
</g>
</a>
</g>
<g color="rgb(100.0000%, 100.0000%, 100.0000%)">
<a style="color:inherit;" xlink:href="textedit:///home/julian/julianjarjour.github.io/_lilypond/diatonicchords.ly:17:89:90">
<g transform="translate(35.7985, 2.5450)">
<path transform="scale(0.0040, -0.0040)" d="M218 136c66 0 108 -36 108 -89c0 -89 -113 -183 -218 -183c-66 0 -108 36 -108 89c0 89 113 183 218 183z" fill="currentColor"/>
</g>
</a>
</g>
<g color="rgb(100.0000%, 100.0000%, 100.0000%)">
<a style="color:inherit;" xlink:href="textedit:///home/julian/julianjarjour.github.io/_lilypond/diatonicchords.ly:17:87:88">
<g transform="translate(35.7985, 3.5450)">
<path transform="scale(0.0040, -0.0040)" d="M218 136c66 0 108 -36 108 -89c0 -89 -113 -183 -218 -183c-66 0 -108 36 -108 89c0 89 113 183 218 183z" fill="currentColor"/>
</g>
</a>
</g>
<g color="rgb(100.0000%, 100.0000%, 100.0000%)">
<a style="color:inherit;" xlink:href="textedit:///home/julian/julianjarjour.github.io/_lilypond/diatonicchords.ly:17:82:83">
<g transform="translate(33.0898, 7.7175)">
<path transform="scale(0.0022, -0.0022)" d="M367 473c0 -21 -128 -163 -128 -357c0 -53 10 -84 10 -91c0 -14 -12 -26 -25 -26c-11 0 -42 15 -73 15c-32 0 -62 -15 -74 -15c-14 0 -25 11 -25 23c0 4 47 128 172 326c-10 -3 -20 -4 -29 -4c-56 0 -62 42 -94 42c-26 0 -47 -53 -47 -75c0 -18 -14 -27 -27 -27
s-27 9 -27 27v162c0 18 14 27 27 27s27 -9 27 -27v-16c0 -10 13 -19 21 -19c9 0 35 57 85 57c49 0 60 -46 94 -46c47 0 60 51 85 51c14 0 28 -12 28 -27z" fill="currentColor"/>
</g>
</a>
</g>
<g color="rgb(100.0000%, 100.0000%, 100.0000%)">
<a style="color:inherit;" xlink:href="textedit:///home/julian/julianjarjour.github.io/_lilypond/diatonicchords.ly:17:81:82">
<g transform="translate(32.7962, 1.0450)">
<path transform="scale(0.0040, -0.0040)" d="M218 136c66 0 108 -36 108 -89c0 -89 -113 -183 -218 -183c-66 0 -108 36 -108 89c0 89 113 183 218 183z" fill="currentColor"/>
</g>
</a>
</g>
<g color="rgb(100.0000%, 100.0000%, 100.0000%)">
<a style="color:inherit;" xlink:href="textedit:///home/julian/julianjarjour.github.io/_lilypond/diatonicchords.ly:17:79:80">
<g transform="translate(32.7962, 2.0450)">
<path transform="scale(0.0040, -0.0040)" d="M218 136c66 0 108 -36 108 -89c0 -89 -113 -183 -218 -183c-66 0 -108 36 -108 89c0 89 113 183 218 183z" fill="currentColor"/>
</g>
</a>
</g>
<g color="rgb(100.0000%, 100.0000%, 100.0000%)">
<a style="color:inherit;" xlink:href="textedit:///home/julian/julianjarjour.github.io/_lilypond/diatonicchords.ly:17:77:78">
<g transform="translate(32.7962, 3.0450)">
<path transform="scale(0.0040, -0.0040)" d="M218 136c66 0 108 -36 108 -89c0 -89 -113 -183 -218 -183c-66 0 -108 36 -108 89c0 89 113 183 218 183z" fill="currentColor"/>
</g>
</a>
</g>
<g color="rgb(100.0000%, 100.0000%, 100.0000%)">
<a style="color:inherit;" xlink:href="textedit:///home/julian/julianjarjour.github.io/_lilypond/diatonicchords.ly:17:10:11">
<g transform="translate(14.5782, 9.2260)">
<path transform="scale(0.0022, -0.0022)" d="M194 486c16 0 29 15 41 15c13 0 24 -13 24 -31v-341c0 -47 35 -86 81 -86c14 0 21 -10 21 -21s-7 -22 -21 -22c-49 0 -97 14 -146 14s-96 -14 -145 -14c-14 0 -22 11 -22 22s8 21 22 21c46 0 80 39 80 86v137c0 23 -16 35 -30 35c-7 0 -13 -4 -17 -11l-34 -65
c-5 -10 -14 -15 -23 -15c-14 0 -28 12 -28 27c0 4 1 8 3 13l129 250c2 4 7 6 11 6c18 0 37 -20 54 -20z" fill="currentColor"/>
</g>
</a>
</g>
<g color="rgb(100.0000%, 100.0000%, 100.0000%)">
<a style="color:inherit;" xlink:href="textedit:///home/julian/julianjarjour.github.io/_lilypond/diatonicchords.ly:17:53:54">
<g transform="translate(26.7917, 4.0450)">
<path transform="scale(0.0040, -0.0040)" d="M218 136c66 0 108 -36 108 -89c0 -89 -113 -183 -218 -183c-66 0 -108 36 -108 89c0 89 113 183 218 183z" fill="currentColor"/>
</g>
</a>
</g>
<g color="rgb(100.0000%, 100.0000%, 100.0000%)">
<a style="color:inherit;" xlink:href="textedit:///home/julian/julianjarjour.github.io/_lilypond/diatonicchords.ly:17:21:22">
<g transform="translate(17.3381, 3.5450)">
<path transform="scale(0.0040, -0.0040)" d="M218 136c66 0 108 -36 108 -89c0 -89 -113 -183 -218 -183c-66 0 -108 36 -108 89c0 89 113 183 218 183z" fill="currentColor"/>
</g>
</a>
</g>
<g color="rgb(100.0000%, 100.0000%, 100.0000%)">
<a style="color:inherit;" xlink:href="textedit:///home/julian/julianjarjour.github.io/_lilypond/diatonicchords.ly:17:19:20">
<g transform="translate(17.3381, 4.5450)">
<path transform="scale(0.0040, -0.0040)" d="M218 136c66 0 108 -36 108 -89c0 -89 -113 -183 -218 -183c-66 0 -108 36 -108 89c0 89 113 183 218 183z" fill="currentColor"/>
</g>
</a>
</g>
<g color="rgb(100.0000%, 100.0000%, 100.0000%)">
<a style="color:inherit;" xlink:href="textedit:///home/julian/julianjarjour.github.io/_lilypond/diatonicchords.ly:17:17:18">
<g transform="translate(17.3381, 5.5450)">
<path transform="scale(0.0040, -0.0040)" d="M218 136c66 0 108 -36 108 -89c0 -89 -113 -183 -218 -183c-66 0 -108 36 -108 89c0 89 113 183 218 183z" fill="currentColor"/>
</g>
</a>
</g>
<g color="rgb(100.0000%, 100.0000%, 100.0000%)">
<a style="color:inherit;" xlink:href="textedit:///home/julian/julianjarjour.github.io/_lilypond/diatonicchords.ly:17:15:16">
<g transform="translate(17.3381, 6.5450)">
<path transform="scale(0.0040, -0.0040)" d="M218 136c66 0 108 -36 108 -89c0 -89 -113 -183 -218 -183c-66 0 -108 36 -108 89c0 89 113 183 218 183z" fill="currentColor"/>
</g>
</a>
</g>
<g color="rgb(100.0000%, 100.0000%, 100.0000%)">
<g transform="translate(9.3358, 5.0450)">
<path transform="scale(0.0040, -0.0040)" d="M266 -635h-6c-108 0 -195 88 -195 197c0 58 53 103 112 103c54 0 95 -47 95 -103c0 -52 -43 -95 -95 -95c-11 0 -21 2 -31 6c26 -39 68 -65 117 -65h4zM461 -203c68 24 113 90 113 164c0 90 -66 179 -173 190c19 -89 48 -242 60 -354zM74 28c0 -145 141 -247 264 -247
c1 0 47 0 82 6c-7 64 -29 203 -63 364c-79 -8 -124 -61 -124 -119c0 -44 25 -91 81 -123c5 -5 7 -10 7 -15c0 -11 -10 -22 -22 -22c-15 0 -126 62 -126 187c0 88 58 174 160 197c-14 58 -29 117 -46 175c-107 -121 -213 -243 -213 -403zM250 553c-29 96 -52 170 -52 346
c0 115 55 224 149 292c6 5 14 5 20 0c68 -80 133 -245 133 -358c0 -143 -86 -255 -180 -364c21 -68 39 -138 56 -207c2 0 7 1 13 1c155 0 256 -128 256 -261c0 -113 -74 -212 -180 -246c3 -35 5 -70 5 -105c0 -19 -1 -39 -2 -58c-7 -119 -88 -225 -202 -228l1 43
c93 2 153 92 159 191c1 18 2 37 2 55c0 31 -1 61 -4 92c-5 -1 -44 -8 -89 -8c-193 0 -333 180 -333 374c0 177 131 306 248 441zM428 916c0 34 1 66 -20 129c-99 -48 -162 -149 -162 -259c0 -52 12 -115 36 -194c80 97 146 198 146 324z" fill="currentColor"/>
</g>
</g>
<g color="rgb(100.0000%, 100.0000%, 100.0000%)">
<a style="color:inherit;" xlink:href="textedit:///home/julian/julianjarjour.github.io/_lilypond/diatonicchords.ly:17:9:10">
<g transform="translate(14.3358, 4.0450)">
<path transform="scale(0.0040, -0.0040)" d="M218 136c66 0 108 -36 108 -89c0 -89 -113 -183 -218 -183c-66 0 -108 36 -108 89c0 89 113 183 218 183z" fill="currentColor"/>
</g>
</a>
</g>
<g color="rgb(100.0000%, 100.0000%, 100.0000%)">
<a style="color:inherit;" xlink:href="textedit:///home/julian/julianjarjour.github.io/_lilypond/diatonicchords.ly:17:7:8">
<g transform="translate(14.3358, 5.0450)">
<path transform="scale(0.0040, -0.0040)" d="M218 136c66 0 108 -36 108 -89c0 -89 -113 -183 -218 -183c-66 0 -108 36 -108 89c0 89 113 183 218 183z" fill="currentColor"/>
</g>
</a>
</g>
<g color="rgb(100.0000%, 100.0000%, 100.0000%)">
<a style="color:inherit;" xlink:href="textedit:///home/julian/julianjarjour.github.io/_lilypond/diatonicchords.ly:17:5:6">
<g transform="translate(14.3358, 6.0450)">
<path transform="scale(0.0040, -0.0040)" d="M218 136c66 0 108 -36 108 -89c0 -89 -113 -183 -218 -183c-66 0 -108 36 -108 89c0 89 113 183 218 183z" fill="currentColor"/>
</g>
</a>
</g>
<g color="rgb(100.0000%, 100.0000%, 100.0000%)">
<a style="color:inherit;" xlink:href="textedit:///home/julian/julianjarjour.github.io/_lilypond/diatonicchords.ly:17:3:4">
<g transform="translate(14.3358, 7.0450)">
<path transform="scale(0.0040, -0.0040)" d="M218 136c66 0 108 -36 108 -89c0 -89 -113 -183 -218 -183c-66 0 -108 36 -108 89c0 89 113 183 218 183z" fill="currentColor"/>
</g>
</a>
</g>
<g color="rgb(100.0000%, 100.0000%, 100.0000%)">
<a style="color:inherit;" xlink:href="textedit:///home/julian/julianjarjour.github.io/_lilypond/diatonicchords.ly:17:51:52">
<g transform="translate(26.7917, 5.0450)">
<path transform="scale(0.0040, -0.0040)" d="M218 136c66 0 108 -36 108 -89c0 -89 -113 -183 -218 -183c-66 0 -108 36 -108 89c0 89 113 183 218 183z" fill="currentColor"/>
</g>
</a>
</g>
<g color="rgb(100.0000%, 100.0000%, 100.0000%)">
<a style="color:inherit;" xlink:href="textedit:///home/julian/julianjarjour.github.io/_lilypond/diatonicchords.ly:17:46:47">
<g transform="translate(23.9806, 7.7198)">
<path transform="scale(0.0022, -0.0022)" d="M148 501c10 0 41 -15 72 -15c32 0 63 15 76 15c15 0 26 -11 26 -21c0 -4 -1 -7 -4 -10l-264 -291h134v4c0 60 50 41 75 85c7 11 8 24 14 36c3 7 10 10 17 10c11 0 24 -8 24 -25v-110h70c18 0 27 -14 27 -27s-9 -27 -27 -27h-70c2 -45 36 -82 80 -82c14 0 22 -10 22 -21
s-8 -22 -22 -22c-49 0 -96 14 -145 14s-97 -14 -146 -14c-14 0 -21 11 -21 22s7 21 21 21c44 0 79 37 81 82h-134c-43 0 -57 25 -57 42c0 5 1 10 3 12c73 81 123 182 123 291c0 17 11 31 25 31z" fill="currentColor"/>
</g>
</a>
</g>
<g color="rgb(100.0000%, 100.0000%, 100.0000%)">
<a style="color:inherit;" xlink:href="textedit:///home/julian/julianjarjour.github.io/_lilypond/diatonicchords.ly:17:45:46">
<g transform="translate(23.7894, 2.5450)">
<path transform="scale(0.0040, -0.0040)" d="M218 136c66 0 108 -36 108 -89c0 -89 -113 -183 -218 -183c-66 0 -108 36 -108 89c0 89 113 183 218 183z" fill="currentColor"/>
</g>
</a>
</g>
<g color="rgb(100.0000%, 100.0000%, 100.0000%)">
<a style="color:inherit;" xlink:href="textedit:///home/julian/julianjarjour.github.io/_lilypond/diatonicchords.ly:17:43:44">
<g transform="translate(23.7894, 3.5450)">
<path transform="scale(0.0040, -0.0040)" d="M218 136c66 0 108 -36 108 -89c0 -89 -113 -183 -218 -183c-66 0 -108 36 -108 89c0 89 113 183 218 183z" fill="currentColor"/>
</g>
</a>
</g>
<g color="rgb(100.0000%, 100.0000%, 100.0000%)">
<a style="color:inherit;" xlink:href="textedit:///home/julian/julianjarjour.github.io/_lilypond/diatonicchords.ly:17:41:42">
<g transform="translate(23.7894, 4.5450)">
<path transform="scale(0.0040, -0.0040)" d="M218 136c66 0 108 -36 108 -89c0 -89 -113 -183 -218 -183c-66 0 -108 36 -108 89c0 89 113 183 218 183z" fill="currentColor"/>
</g>
</a>
</g>
<g color="rgb(100.0000%, 100.0000%, 100.0000%)">
<a style="color:inherit;" xlink:href="textedit:///home/julian/julianjarjour.github.io/_lilypond/diatonicchords.ly:17:39:40">
<g transform="translate(23.7894, 5.5450)">
<path transform="scale(0.0040, -0.0040)" d="M218 136c66 0 108 -36 108 -89c0 -89 -113 -183 -218 -183c-66 0 -108 36 -108 89c0 89 113 183 218 183z" fill="currentColor"/>
</g>
</a>
</g>
<g color="rgb(100.0000%, 100.0000%, 100.0000%)">
<a style="color:inherit;" xlink:href="textedit:///home/julian/julianjarjour.github.io/_lilypond/diatonicchords.ly:17:34:35">
<g transform="translate(20.5998, 8.2125)">
<path transform="scale(0.0022, -0.0022)" d="M261 266c0 -54 85 -40 85 -125c0 -94 -83 -141 -186 -141c-84 0 -160 54 -160 133c0 32 26 58 58 58s58 -26 58 -58c0 -22 -36 -26 -36 -48c0 -33 42 -42 80 -42c41 0 56 50 56 98v21c0 44 -2 77 -43 77h-65c-18 0 -27 14 -27 27s9 27 27 27h65c42 0 43 36 43 83v11
c0 43 -20 70 -61 70c-34 0 -71 -8 -71 -38c0 -19 32 -23 32 -42c0 -28 -23 -51 -51 -51s-51 23 -51 51c0 72 66 123 141 123c93 0 174 -31 174 -113c0 -94 -68 -67 -68 -121z" fill="currentColor"/>
</g>
</a>
</g>
<g color="rgb(100.0000%, 100.0000%, 100.0000%)">
<a style="color:inherit;" xlink:href="textedit:///home/julian/julianjarjour.github.io/_lilypond/diatonicchords.ly:17:22:23">
<g transform="translate(17.5634, 8.7125)">
<path transform="scale(0.0022, -0.0022)" d="M94 66c-60 0 -39 -66 -72 -66c-11 0 -22 7 -22 21c0 154 232 162 232 334c0 50 -17 102 -61 102c-33 0 -66 -14 -66 -44c0 -24 31 -37 31 -61c0 -34 -27 -61 -61 -61s-61 27 -61 61c0 84 72 148 157 148c98 0 190 -55 190 -145c0 -140 -131 -154 -225 -205
c85 -2 113 -61 165 -61c45 0 28 41 57 41c11 0 22 -8 22 -21c0 -29 -48 -109 -144 -109c-92 0 -96 66 -142 66z" fill="currentColor"/>
</g>
</a>
</g>
<g color="rgb(100.0000%, 100.0000%, 100.0000%)">
<a style="color:inherit;" xlink:href="textedit:///home/julian/julianjarjour.github.io/_lilypond/diatonicchords.ly:17:27:28">
<g transform="translate(20.3403, 6.0450)">
<path transform="scale(0.0040, -0.0040)" d="M218 136c66 0 108 -36 108 -89c0 -89 -113 -183 -218 -183c-66 0 -108 36 -108 89c0 89 113 183 218 183z" fill="currentColor"/>
</g>
</a>
</g>
<g color="rgb(100.0000%, 100.0000%, 100.0000%)">
<a style="color:inherit;" xlink:href="textedit:///home/julian/julianjarjour.github.io/_lilypond/diatonicchords.ly:17:29:30">
<g transform="translate(20.3403, 5.0450)">
<path transform="scale(0.0040, -0.0040)" d="M218 136c66 0 108 -36 108 -89c0 -89 -113 -183 -218 -183c-66 0 -108 36 -108 89c0 89 113 183 218 183z" fill="currentColor"/>
</g>
</a>
</g>
<g color="rgb(100.0000%, 100.0000%, 100.0000%)">
<a style="color:inherit;" xlink:href="textedit:///home/julian/julianjarjour.github.io/_lilypond/diatonicchords.ly:17:31:32">
<g transform="translate(20.3403, 4.0450)">
<path transform="scale(0.0040, -0.0040)" d="M218 136c66 0 108 -36 108 -89c0 -89 -113 -183 -218 -183c-66 0 -108 36 -108 89c0 89 113 183 218 183z" fill="currentColor"/>
</g>
</a>
</g>
<g color="rgb(100.0000%, 100.0000%, 100.0000%)">
<a style="color:inherit;" xlink:href="textedit:///home/julian/julianjarjour.github.io/_lilypond/diatonicchords.ly:17:33:34">
<g transform="translate(20.3403, 3.0450)">
<path transform="scale(0.0040, -0.0040)" d="M218 136c66 0 108 -36 108 -89c0 -89 -113 -183 -218 -183c-66 0 -108 36 -108 89c0 89 113 183 218 183z" fill="currentColor"/>
</g>
</a>
</g>
</svg>
