<svg xmlns="http://www.w3.org/2000/svg" xmlns:xlink="http://www.w3.org/1999/xlink" version="1.2" width="174.91mm" height="20.68mm" viewBox="8.5358 0.0001 99.5346 11.7671">
<style type="text/css">
<![CDATA[
tspan { white-space: pre; }
]]>
</style>
<g color="rgb(100.0000%, 100.0000%, 100.0000%)">
<g transform="translate(8.5358, 9.7222)">
<line stroke-linejoin="round" stroke-linecap="round" stroke-width="0.1000" stroke="currentColor" x1="0.0500" y1="0" x2="99.5346" y2="0"/>
</g>
<g transform="translate(8.5358, 8.7222)">
<line stroke-linejoin="round" stroke-linecap="round" stroke-width="0.1000" stroke="currentColor" x1="0.0500" y1="0" x2="99.5346" y2="0"/>
</g>
<g transform="translate(8.5358, 7.7222)">
<line stroke-linejoin="round" stroke-linecap="round" stroke-width="0.1000" stroke="currentColor" x1="0.0500" y1="0" x2="99.5346" y2="0"/>
</g>
<g transform="translate(8.5358, 6.7222)">
<line stroke-linejoin="round" stroke-linecap="round" stroke-width="0.1000" stroke="currentColor" x1="0.0500" y1="0" x2="99.5346" y2="0"/>
</g>
<g transform="translate(8.5358, 5.7222)">
<line stroke-linejoin="round" stroke-linecap="round" stroke-width="0.1000" stroke="currentColor" x1="0.0500" y1="0" x2="99.5346" y2="0"/>
</g>
</g>
<g color="rgb(100.0000%, 100.0000%, 100.0000%)">
<g transform="translate(0.0000, 4.7222)">
<rect x="96.7078" y="-0.1000" width="1.9563" height="0.2000" ry="0.1000" fill="currentColor"/>
</g>
<g transform="translate(0.0000, 10.7222)">
<rect x="29.7411" y="-0.1000" width="1.9563" height="0.2000" ry="0.1000" fill="currentColor"/>
</g>
<g transform="translate(0.0000, 10.7222)">
<rect x="18.6544" y="-0.1000" width="1.9563" height="0.2000" ry="0.1000" fill="currentColor"/>
</g>
</g>
<g color="rgb(100.0000%, 100.0000%, 100.0000%)">
<a style="color:inherit;" xlink:href="textedit:///home/julian/julianjarjour.github.io/_lilypond/diatonicchords.ly:26:1:2">
<g transform="translate(74.8605, 8.7222)">
<path transform="scale(0.0040, -0.0040)" d="M218 136c66 0 108 -36 108 -89c0 -89 -113 -183 -218 -183c-66 0 -108 36 -108 89c0 89 113 183 218 183z" fill="currentColor"/>
</g>
</a>
</g>
<g color="rgb(100.0000%, 100.0000%, 100.0000%)">
<a style="color:inherit;" xlink:href="textedit:///home/julian/julianjarjour.github.io/_lilypond/diatonicchords.ly:26:3:4">
<g transform="translate(74.8605, 7.7222)">
<path transform="scale(0.0040, -0.0040)" d="M218 136c66 0 108 -36 108 -89c0 -89 -113 -183 -218 -183c-66 0 -108 36 -108 89c0 89 113 183 218 183z" fill="currentColor"/>
</g>
</a>
</g>
<g color="rgb(100.0000%, 100.0000%, 100.0000%)">
<a style="color:inherit;" xlink:href="textedit:///home/julian/julianjarjour.github.io/_lilypond/diatonicchords.ly:26:7:8">
<g transform="translate(74.8605, 6.7222)">
<path transform="scale(0.0040, -0.0040)" d="M218 136c66 0 108 -36 108 -89c0 -89 -113 -183 -218 -183c-66 0 -108 36 -108 89c0 89 113 183 218 183z" fill="currentColor"/>
</g>
</a>
</g>
<g color="rgb(100.0000%, 100.0000%, 100.0000%)">
<a style="color:inherit;" xlink:href="textedit:///home/julian/julianjarjour.github.io/_lilypond/diatonicchords.ly:26:9:10">
<g transform="translate(74.8605, 5.7222)">
<path transform="scale(0.0040, -0.0040)" d="M218 136c66 0 108 -36 108 -89c0 -89 -113 -183 -218 -183c-66 0 -108 36 -108 89c0 89 113 183 218 183z" fill="currentColor"/>
</g>
</a>
</g>
<g color="rgb(100.0000%, 100.0000%, 100.0000%)">
<a style="color:inherit;" xlink:href="textedit:///home/julian/julianjarjour.github.io/_lilypond/diatonicchords.ly:26:11:12">
<g transform="translate(72.7607, 1.6722)">
<text font-family="serif" font-size="2.2001" text-anchor="start" fill="currentColor">
<tspan>VI-7</tspan>
</text>
</g>
</a>
</g>
<g color="rgb(100.0000%, 100.0000%, 100.0000%)">
<a style="color:inherit;" xlink:href="textedit:///home/julian/julianjarjour.github.io/_lilypond/diatonicchords.ly:25:3:4">
<g transform="translate(63.7739, 8.2222)">
<path transform="scale(0.0040, -0.0040)" d="M218 136c66 0 108 -36 108 -89c0 -89 -113 -183 -218 -183c-66 0 -108 36 -108 89c0 89 113 183 218 183z" fill="currentColor"/>
</g>
</a>
</g>
<g color="rgb(100.0000%, 100.0000%, 100.0000%)">
<a style="color:inherit;" xlink:href="textedit:///home/julian/julianjarjour.github.io/_lilypond/diatonicchords.ly:25:11:12">
<g transform="translate(62.4252, 1.6722)">
<text font-family="serif" font-size="2.2001" text-anchor="start" fill="currentColor">
<tspan>V7</tspan>
</text>
</g>
</a>
</g>
<g color="rgb(100.0000%, 100.0000%, 100.0000%)">
<a style="color:inherit;" xlink:href="textedit:///home/julian/julianjarjour.github.io/_lilypond/diatonicchords.ly:25:7:8">
<g transform="translate(63.7739, 6.2222)">
<path transform="scale(0.0040, -0.0040)" d="M218 136c66 0 108 -36 108 -89c0 -89 -113 -183 -218 -183c-66 0 -108 36 -108 89c0 89 113 183 218 183z" fill="currentColor"/>
</g>
</a>
</g>
<g color="rgb(100.0000%, 100.0000%, 100.0000%)">
<a style="color:inherit;" xlink:href="textedit:///home/julian/julianjarjour.github.io/_lilypond/diatonicchords.ly:25:5:6">
<g transform="translate(63.7739, 7.2222)">
<path transform="scale(0.0040, -0.0040)" d="M218 136c66 0 108 -36 108 -89c0 -89 -113 -183 -218 -183c-66 0 -108 36 -108 89c0 89 113 183 218 183z" fill="currentColor"/>
</g>
</a>
</g>
<g color="rgb(100.0000%, 100.0000%, 100.0000%)">
<a style="color:inherit;" xlink:href="textedit:///home/julian/julianjarjour.github.io/_lilypond/diatonicchords.ly:28:11:12">
<g transform="translate(94.0292, 1.6722)">
<text font-family="serif" font-size="2.2001" text-anchor="start" fill="currentColor">
<tspan>Imaj7</tspan>
</text>
</g>
</a>
</g>
<g color="rgb(100.0000%, 100.0000%, 100.0000%)">
<a style="color:inherit;" xlink:href="textedit:///home/julian/julianjarjour.github.io/_lilypond/diatonicchords.ly:28:9:10">
<g transform="translate(97.0338, 4.7222)">
<path transform="scale(0.0040, -0.0040)" d="M218 136c66 0 108 -36 108 -89c0 -89 -113 -183 -218 -183c-66 0 -108 36 -108 89c0 89 113 183 218 183z" fill="currentColor"/>
</g>
</a>
</g>
<g color="rgb(100.0000%, 100.0000%, 100.0000%)">
<a style="color:inherit;" xlink:href="textedit:///home/julian/julianjarjour.github.io/_lilypond/diatonicchords.ly:28:7:8">
<g transform="translate(97.0338, 5.7222)">
<path transform="scale(0.0040, -0.0040)" d="M218 136c66 0 108 -36 108 -89c0 -89 -113 -183 -218 -183c-66 0 -108 36 -108 89c0 89 113 183 218 183z" fill="currentColor"/>
</g>
</a>
</g>
<g color="rgb(100.0000%, 100.0000%, 100.0000%)">
<a style="color:inherit;" xlink:href="textedit:///home/julian/julianjarjour.github.io/_lilypond/diatonicchords.ly:28:5:6">
<g transform="translate(97.0338, 6.7222)">
<path transform="scale(0.0040, -0.0040)" d="M218 136c66 0 108 -36 108 -89c0 -89 -113 -183 -218 -183c-66 0 -108 36 -108 89c0 89 113 183 218 183z" fill="currentColor"/>
</g>
</a>
</g>
<g color="rgb(100.0000%, 100.0000%, 100.0000%)">
<a style="color:inherit;" xlink:href="textedit:///home/julian/julianjarjour.github.io/_lilypond/diatonicchords.ly:28:1:2">
<g transform="translate(97.0338, 7.7222)">
<path transform="scale(0.0040, -0.0040)" d="M218 136c66 0 108 -36 108 -89c0 -89 -113 -183 -218 -183c-66 0 -108 36 -108 89c0 89 113 183 218 183z" fill="currentColor"/>
</g>
</a>
</g>
<g color="rgb(100.0000%, 100.0000%, 100.0000%)">
<a style="color:inherit;" xlink:href="textedit:///home/julian/julianjarjour.github.io/_lilypond/diatonicchords.ly:27:11:12">
<g transform="translate(83.3694, 1.6722)">
<text font-family="serif" font-size="2.2001" text-anchor="start" fill="currentColor">
<tspan>VIIᵒ7</tspan>
</text>
</g>
</a>
</g>
<g color="rgb(100.0000%, 100.0000%, 100.0000%)">
<a style="color:inherit;" xlink:href="textedit:///home/julian/julianjarjour.github.io/_lilypond/diatonicchords.ly:27:9:10">
<g transform="translate(85.9472, 5.2222)">
<path transform="scale(0.0040, -0.0040)" d="M218 136c66 0 108 -36 108 -89c0 -89 -113 -183 -218 -183c-66 0 -108 36 -108 89c0 89 113 183 218 183z" fill="currentColor"/>
</g>
</a>
</g>
<g color="rgb(100.0000%, 100.0000%, 100.0000%)">
<a style="color:inherit;" xlink:href="textedit:///home/julian/julianjarjour.github.io/_lilypond/diatonicchords.ly:27:5:6">
<g transform="translate(85.9472, 6.2222)">
<path transform="scale(0.0040, -0.0040)" d="M218 136c66 0 108 -36 108 -89c0 -89 -113 -183 -218 -183c-66 0 -108 36 -108 89c0 89 113 183 218 183z" fill="currentColor"/>
</g>
</a>
</g>
<g color="rgb(100.0000%, 100.0000%, 100.0000%)">
<a style="color:inherit;" xlink:href="textedit:///home/julian/julianjarjour.github.io/_lilypond/diatonicchords.ly:27:3:4">
<g transform="translate(85.9472, 7.2222)">
<path transform="scale(0.0040, -0.0040)" d="M218 136c66 0 108 -36 108 -89c0 -89 -113 -183 -218 -183c-66 0 -108 36 -108 89c0 89 113 183 218 183z" fill="currentColor"/>
</g>
</a>
</g>
<g color="rgb(100.0000%, 100.0000%, 100.0000%)">
<a style="color:inherit;" xlink:href="textedit:///home/julian/julianjarjour.github.io/_lilypond/diatonicchords.ly:27:1:2">
<g transform="translate(85.9472, 8.2222)">
<path transform="scale(0.0040, -0.0040)" d="M218 136c66 0 108 -36 108 -89c0 -89 -113 -183 -218 -183c-66 0 -108 36 -108 89c0 89 113 183 218 183z" fill="currentColor"/>
</g>
</a>
</g>
<g color="rgb(100.0000%, 100.0000%, 100.0000%)">
<a style="color:inherit;" xlink:href="textedit:///home/julian/julianjarjour.github.io/_lilypond/diatonicchords.ly:22:9:10">
<g transform="translate(30.0671, 7.7222)">
<path transform="scale(0.0040, -0.0040)" d="M218 136c66 0 108 -36 108 -89c0 -89 -113 -183 -218 -183c-66 0 -108 36 -108 89c0 89 113 183 218 183z" fill="currentColor"/>
</g>
</a>
</g>
<g color="rgb(100.0000%, 100.0000%, 100.0000%)">
<a style="color:inherit;" xlink:href="textedit:///home/julian/julianjarjour.github.io/_lilypond/diatonicchords.ly:25:1:2">
<g transform="translate(63.7739, 9.2222)">
<path transform="scale(0.0040, -0.0040)" d="M218 136c66 0 108 -36 108 -89c0 -89 -113 -183 -218 -183c-66 0 -108 36 -108 89c0 89 113 183 218 183z" fill="currentColor"/>
</g>
</a>
</g>
<g color="rgb(100.0000%, 100.0000%, 100.0000%)">
<a style="color:inherit;" xlink:href="textedit:///home/julian/julianjarjour.github.io/_lilypond/diatonicchords.ly:22:3:4">
<g transform="translate(30.0671, 9.7222)">
<path transform="scale(0.0040, -0.0040)" d="M218 136c66 0 108 -36 108 -89c0 -89 -113 -183 -218 -183c-66 0 -108 36 -108 89c0 89 113 183 218 183z" fill="currentColor"/>
</g>
</a>
</g>
<g color="rgb(100.0000%, 100.0000%, 100.0000%)">
<a style="color:inherit;" xlink:href="textedit:///home/julian/julianjarjour.github.io/_lilypond/diatonicchords.ly:22:1:2">
<g transform="translate(30.0671, 10.7222)">
<path transform="scale(0.0040, -0.0040)" d="M218 136c66 0 108 -36 108 -89c0 -89 -113 -183 -218 -183c-66 0 -108 36 -108 89c0 89 113 183 218 183z" fill="currentColor"/>
</g>
</a>
</g>
<g color="rgb(100.0000%, 100.0000%, 100.0000%)">
<a style="color:inherit;" xlink:href="textedit:///home/julian/julianjarjour.github.io/_lilypond/diatonicchords.ly:22:7:8">
<g transform="translate(30.0671, 8.7222)">
<path transform="scale(0.0040, -0.0040)" d="M218 136c66 0 108 -36 108 -89c0 -89 -113 -183 -218 -183c-66 0 -108 36 -108 89c0 89 113 183 218 183z" fill="currentColor"/>
</g>
</a>
</g>
<g color="rgb(100.0000%, 100.0000%, 100.0000%)">
<a style="color:inherit;" xlink:href="textedit:///home/julian/julianjarjour.github.io/_lilypond/diatonicchords.ly:20:0:1">
<g transform="translate(12.9558, 7.7222)">
<path transform="scale(0.0040, -0.0040)" d="M27 41l-1 -66v-11c0 -22 1 -44 4 -66c45 38 93 80 93 139c0 33 -14 67 -43 67c-31 0 -52 -30 -53 -63zM-15 -138l-12 595c8 5 18 8 27 8s19 -3 27 -8l-7 -345c25 21 58 34 91 34c52 0 89 -48 89 -102c0 -80 -86 -117 -147 -169c-15 -13 -24 -38 -45 -38
c-13 0 -23 11 -23 25z" fill="currentColor"/>
</g>
<g transform="translate(13.8759, 6.2222)">
<path transform="scale(0.0040, -0.0040)" d="M27 41l-1 -66v-11c0 -22 1 -44 4 -66c45 38 93 80 93 139c0 33 -14 67 -43 67c-31 0 -52 -30 -53 -63zM-15 -138l-12 595c8 5 18 8 27 8s19 -3 27 -8l-7 -345c25 21 58 34 91 34c52 0 89 -48 89 -102c0 -80 -86 -117 -147 -169c-15 -13 -24 -38 -45 -38
c-13 0 -23 11 -23 25z" fill="currentColor"/>
</g>
</a>
</g>
<g color="rgb(100.0000%, 100.0000%, 100.0000%)">
<g transform="translate(9.3358, 8.7222)">
<path transform="scale(0.0040, -0.0040)" d="M266 -635h-6c-108 0 -195 88 -195 197c0 58 53 103 112 103c54 0 95 -47 95 -103c0 -52 -43 -95 -95 -95c-11 0 -21 2 -31 6c26 -39 68 -65 117 -65h4zM461 -203c68 24 113 90 113 164c0 90 -66 179 -173 190c19 -89 48 -242 60 -354zM74 28c0 -145 141 -247 264 -247
c1 0 47 0 82 6c-7 64 -29 203 -63 364c-79 -8 -124 -61 -124 -119c0 -44 25 -91 81 -123c5 -5 7 -10 7 -15c0 -11 -10 -22 -22 -22c-15 0 -126 62 -126 187c0 88 58 174 160 197c-14 58 -29 117 -46 175c-107 -121 -213 -243 -213 -403zM250 553c-29 96 -52 170 -52 346
c0 115 55 224 149 292c6 5 14 5 20 0c68 -80 133 -245 133 -358c0 -143 -86 -255 -180 -364c21 -68 39 -138 56 -207c2 0 7 1 13 1c155 0 256 -128 256 -261c0 -113 -74 -212 -180 -246c3 -35 5 -70 5 -105c0 -19 -1 -39 -2 -58c-7 -119 -88 -225 -202 -228l1 43
c93 2 153 92 159 191c1 18 2 37 2 55c0 31 -1 61 -4 92c-5 -1 -44 -8 -89 -8c-193 0 -333 180 -333 374c0 177 131 306 248 441zM428 916c0 34 1 66 -20 129c-99 -48 -162 -149 -162 -259c0 -52 12 -115 36 -194c80 97 146 198 146 324z" fill="currentColor"/>
</g>
</g>
<g color="rgb(100.0000%, 100.0000%, 100.0000%)">
<a style="color:inherit;" xlink:href="textedit:///home/julian/julianjarjour.github.io/_lilypond/diatonicchords.ly:21:11:12">
<g transform="translate(15.9759, 1.6722)">
<text font-family="serif" font-size="2.2001" text-anchor="start" fill="currentColor">
<tspan>Imaj7</tspan>
</text>
</g>
</a>
</g>
<g color="rgb(100.0000%, 100.0000%, 100.0000%)">
<a style="color:inherit;" xlink:href="textedit:///home/julian/julianjarjour.github.io/_lilypond/diatonicchords.ly:21:9:10">
<g transform="translate(18.9805, 8.2222)">
<path transform="scale(0.0040, -0.0040)" d="M218 136c66 0 108 -36 108 -89c0 -89 -113 -183 -218 -183c-66 0 -108 36 -108 89c0 89 113 183 218 183z" fill="currentColor"/>
</g>
</a>
</g>
<g color="rgb(100.0000%, 100.0000%, 100.0000%)">
<a style="color:inherit;" xlink:href="textedit:///home/julian/julianjarjour.github.io/_lilypond/diatonicchords.ly:21:7:8">
<g transform="translate(18.9805, 9.2222)">
<path transform="scale(0.0040, -0.0040)" d="M218 136c66 0 108 -36 108 -89c0 -89 -113 -183 -218 -183c-66 0 -108 36 -108 89c0 89 113 183 218 183z" fill="currentColor"/>
</g>
</a>
</g>
<g color="rgb(100.0000%, 100.0000%, 100.0000%)">
<a style="color:inherit;" xlink:href="textedit:///home/julian/julianjarjour.github.io/_lilypond/diatonicchords.ly:21:5:6">
<g transform="translate(18.9805, 10.2222)">
<path transform="scale(0.0040, -0.0040)" d="M218 136c66 0 108 -36 108 -89c0 -89 -113 -183 -218 -183c-66 0 -108 36 -108 89c0 89 113 183 218 183z" fill="currentColor"/>
</g>
</a>
</g>
<g color="rgb(100.0000%, 100.0000%, 100.0000%)">
<a style="color:inherit;" xlink:href="textedit:///home/julian/julianjarjour.github.io/_lilypond/diatonicchords.ly:21:1:2">
<g transform="translate(18.9805, 11.2222)">
<path transform="scale(0.0040, -0.0040)" d="M218 136c66 0 108 -36 108 -89c0 -89 -113 -183 -218 -183c-66 0 -108 36 -108 89c0 89 113 183 218 183z" fill="currentColor"/>
</g>
</a>
</g>
<g color="rgb(100.0000%, 100.0000%, 100.0000%)">
<a style="color:inherit;" xlink:href="textedit:///home/julian/julianjarjour.github.io/_lilypond/diatonicchords.ly:24:13:14">
<g transform="translate(48.5017, 1.6722)">
<text font-family="serif" font-size="2.2001" text-anchor="start" fill="currentColor">
<tspan>IVmaj7</tspan>
</text>
</g>
</a>
</g>
<g color="rgb(100.0000%, 100.0000%, 100.0000%)">
<a style="color:inherit;" xlink:href="textedit:///home/julian/julianjarjour.github.io/_lilypond/diatonicchords.ly:24:11:12">
<g transform="translate(52.2404, 6.7222)">
<path transform="scale(0.0040, -0.0040)" d="M218 136c66 0 108 -36 108 -89c0 -89 -113 -183 -218 -183c-66 0 -108 36 -108 89c0 89 113 183 218 183z" fill="currentColor"/>
</g>
</a>
</g>
<g color="rgb(100.0000%, 100.0000%, 100.0000%)">
<a style="color:inherit;" xlink:href="textedit:///home/julian/julianjarjour.github.io/_lilypond/diatonicchords.ly:24:7:8">
<g transform="translate(52.2404, 7.7222)">
<path transform="scale(0.0040, -0.0040)" d="M218 136c66 0 108 -36 108 -89c0 -89 -113 -183 -218 -183c-66 0 -108 36 -108 89c0 89 113 183 218 183z" fill="currentColor"/>
</g>
</a>
</g>
<g color="rgb(100.0000%, 100.0000%, 100.0000%)">
<a style="color:inherit;" xlink:href="textedit:///home/julian/julianjarjour.github.io/_lilypond/diatonicchords.ly:24:5:6">
<g transform="translate(52.2404, 8.7222)">
<path transform="scale(0.0040, -0.0040)" d="M218 136c66 0 108 -36 108 -89c0 -89 -113 -183 -218 -183c-66 0 -108 36 -108 89c0 89 113 183 218 183z" fill="currentColor"/>
</g>
</a>
</g>
<g color="rgb(100.0000%, 100.0000%, 100.0000%)">
<a style="color:inherit;" xlink:href="textedit:///home/julian/julianjarjour.github.io/_lilypond/diatonicchords.ly:24:1:2">
<g transform="translate(52.2404, 9.7222)">
<path transform="scale(0.0040, -0.0040)" d="M218 136c66 0 108 -36 108 -89c0 -89 -113 -183 -218 -183c-66 0 -108 36 -108 89c0 89 113 183 218 183z" fill="currentColor"/>
</g>
</a>
</g>
<g color="rgb(100.0000%, 100.0000%, 100.0000%)">
<a style="color:inherit;" xlink:href="textedit:///home/julian/julianjarjour.github.io/_lilypond/diatonicchords.ly:23:7:8">
<g transform="translate(41.1538, 7.2222)">
<path transform="scale(0.0040, -0.0040)" d="M218 136c66 0 108 -36 108 -89c0 -89 -113 -183 -218 -183c-66 0 -108 36 -108 89c0 89 113 183 218 183z" fill="currentColor"/>
</g>
</a>
</g>
<g color="rgb(100.0000%, 100.0000%, 100.0000%)">
<a style="color:inherit;" xlink:href="textedit:///home/julian/julianjarjour.github.io/_lilypond/diatonicchords.ly:23:9:10">
<g transform="translate(38.9686, 1.6722)">
<text font-family="serif" font-size="2.2001" text-anchor="start" fill="currentColor">
<tspan>III-7</tspan>
</text>
</g>
</a>
</g>
<g color="rgb(100.0000%, 100.0000%, 100.0000%)">
<a style="color:inherit;" xlink:href="textedit:///home/julian/julianjarjour.github.io/_lilypond/diatonicchords.ly:23:5:6">
<g transform="translate(41.1538, 8.2222)">
<path transform="scale(0.0040, -0.0040)" d="M218 136c66 0 108 -36 108 -89c0 -89 -113 -183 -218 -183c-66 0 -108 36 -108 89c0 89 113 183 218 183z" fill="currentColor"/>
</g>
</a>
</g>
<g color="rgb(100.0000%, 100.0000%, 100.0000%)">
<a style="color:inherit;" xlink:href="textedit:///home/julian/julianjarjour.github.io/_lilypond/diatonicchords.ly:22:13:14">
<g transform="translate(28.2917, 1.6722)">
<text font-family="serif" font-size="2.2001" text-anchor="start" fill="currentColor">
<tspan>II-7</tspan>
</text>
</g>
</a>
</g>
<g color="rgb(100.0000%, 100.0000%, 100.0000%)">
<a style="color:inherit;" xlink:href="textedit:///home/julian/julianjarjour.github.io/_lilypond/diatonicchords.ly:23:3:4">
<g transform="translate(41.1538, 9.2222)">
<path transform="scale(0.0040, -0.0040)" d="M218 136c66 0 108 -36 108 -89c0 -89 -113 -183 -218 -183c-66 0 -108 36 -108 89c0 89 113 183 218 183z" fill="currentColor"/>
</g>
</a>
</g>
<g color="rgb(100.0000%, 100.0000%, 100.0000%)">
<a style="color:inherit;" xlink:href="textedit:///home/julian/julianjarjour.github.io/_lilypond/diatonicchords.ly:23:1:2">
<g transform="translate(41.1538, 10.2222)">
<path transform="scale(0.0040, -0.0040)" d="M218 136c66 0 108 -36 108 -89c0 -89 -113 -183 -218 -183c-66 0 -108 36 -108 89c0 89 113 183 218 183z" fill="currentColor"/>
</g>
</a>
</g>
</svg>
