<svg xmlns="http://www.w3.org/2000/svg" xmlns:xlink="http://www.w3.org/1999/xlink" version="1.2" width="45.72mm" height="9.84mm" viewBox="8.5358 -0.0000 26.0195 5.6020">
<style type="text/css">
<![CDATA[
tspan { white-space: pre; }
]]>
</style>
<g color="rgb(100.0000%, 100.0000%, 100.0000%)">
<g transform="translate(8.5358, 4.0500)">
<line stroke-linejoin="round" stroke-linecap="round" stroke-width="0.1000" stroke="currentColor" x1="0.0500" y1="0" x2="26.0195" y2="0"/>
</g>
<g transform="translate(8.5358, 3.0500)">
<line stroke-linejoin="round" stroke-linecap="round" stroke-width="0.1000" stroke="currentColor" x1="0.0500" y1="0" x2="26.0195" y2="0"/>
</g>
<g transform="translate(8.5358, 2.0500)">
<line stroke-linejoin="round" stroke-linecap="round" stroke-width="0.1000" stroke="currentColor" x1="0.0500" y1="0" x2="26.0195" y2="0"/>
</g>
<g transform="translate(8.5358, 1.0500)">
<line stroke-linejoin="round" stroke-linecap="round" stroke-width="0.1000" stroke="currentColor" x1="0.0500" y1="0" x2="26.0195" y2="0"/>
</g>
<g transform="translate(8.5358, 0.0500)">
<line stroke-linejoin="round" stroke-linecap="round" stroke-width="0.1000" stroke="currentColor" x1="0.0500" y1="0" x2="26.0195" y2="0"/>
</g>
</g>
<g color="rgb(100.0000%, 100.0000%, 100.0000%)">
<g transform="translate(0.0000, 5.0500)">
<rect x="10.1928" y="-0.1000" width="2.0580" height="0.2000" ry="0.1000" fill="currentColor"/>
</g>
</g>
<g color="rgb(100.0000%, 100.0000%, 100.0000%)">
<a style="color:inherit;" xlink:href="textedit:///home/julian/julianjarjour.github.io/_lilypond/maqamajam.ly:32:4:5">
<g transform="translate(25.5741, 2.5500)">
<path transform="scale(0.0040, -0.0040)" d="M0 -37c0 88 113 175 202 175c60 0 115 -50 115 -101c0 -97 -98 -175 -192 -175c-75 0 -125 33 -125 101z" fill="currentColor"/>
</g>
</a>
</g>
<g color="rgb(100.0000%, 100.0000%, 100.0000%)">
<a style="color:inherit;" xlink:href="textedit:///home/julian/julianjarjour.github.io/_lilypond/maqamajam.ly:34:2:3">
<g transform="translate(31.5353, 1.5500)">
<path transform="scale(0.0040, -0.0040)" d="M222 137c80 0 121 -31 121 -93c0 -105 -91 -182 -212 -182c-81 0 -131 40 -131 94c0 95 94 181 222 181zM259 94c-31 0 -217 -96 -217 -144c0 -26 14 -42 43 -42c52 0 216 95 216 146c0 19 -23 40 -42 40z" fill="currentColor"/>
</g>
</a>
</g>
<g color="rgb(100.0000%, 100.0000%, 100.0000%)">
<a style="color:inherit;" xlink:href="textedit:///home/julian/julianjarjour.github.io/_lilypond/maqamajam.ly:32:6:7">
<g transform="translate(28.5692, 2.0500)">
<path transform="scale(0.0040, -0.0040)" d="M0 -37c0 88 113 175 202 175c60 0 115 -50 115 -101c0 -97 -98 -175 -192 -175c-75 0 -125 33 -125 101z" fill="currentColor"/>
</g>
</a>
</g>
<g color="rgb(100.0000%, 100.0000%, 100.0000%)">
<a style="color:inherit;" xlink:href="textedit:///home/julian/julianjarjour.github.io/_lilypond/maqamajam.ly:30:4:5">
<g transform="translate(13.6059, 4.5500)">
<path transform="scale(0.0040, -0.0040)" d="M0 -37c0 88 113 175 202 175c60 0 115 -50 115 -101c0 -97 -98 -175 -192 -175c-75 0 -125 33 -125 101z" fill="currentColor"/>
</g>
</a>
</g>
<g color="rgb(100.0000%, 100.0000%, 100.0000%)">
<a style="color:inherit;" xlink:href="textedit:///home/julian/julianjarjour.github.io/_lilypond/maqamajam.ly:32:2:3">
<g transform="translate(22.5040, 3.0500)">
<path transform="scale(0.0040, -0.0040)" d="M222 137c80 0 121 -31 121 -93c0 -105 -91 -182 -212 -182c-81 0 -131 40 -131 94c0 95 94 181 222 181zM259 94c-31 0 -217 -96 -217 -144c0 -26 14 -42 43 -42c52 0 216 95 216 146c0 19 -23 40 -42 40z" fill="currentColor"/>
</g>
</a>
</g>
<g color="rgb(100.0000%, 100.0000%, 100.0000%)">
<a style="color:inherit;" xlink:href="textedit:///home/julian/julianjarjour.github.io/_lilypond/maqamajam.ly:30:2:3">
<g transform="translate(10.5358, 5.0500)">
<path transform="scale(0.0040, -0.0040)" d="M222 137c80 0 121 -31 121 -93c0 -105 -91 -182 -212 -182c-81 0 -131 40 -131 94c0 95 94 181 222 181zM259 94c-31 0 -217 -96 -217 -144c0 -26 14 -42 43 -42c52 0 216 95 216 146c0 19 -23 40 -42 40z" fill="currentColor"/>
</g>
</a>
</g>
<g color="rgb(100.0000%, 100.0000%, 100.0000%)">
<a style="color:inherit;" xlink:href="textedit:///home/julian/julianjarjour.github.io/_lilypond/maqamajam.ly:30:8:9">
<g transform="translate(19.5380, 3.5500)">
<path transform="scale(0.0040, -0.0040)" d="M0 -37c0 88 113 175 202 175c60 0 115 -50 115 -101c0 -97 -98 -175 -192 -175c-75 0 -125 33 -125 101z" fill="currentColor"/>
</g>
</a>
</g>
<g color="rgb(100.0000%, 100.0000%, 100.0000%)">
<a style="color:inherit;" xlink:href="textedit:///home/julian/julianjarjour.github.io/_lilypond/maqamajam.ly:30:6:7">
<g transform="translate(16.5719, 4.0500)">
<path transform="scale(0.0040, -0.0040)" d="M0 -37c0 88 113 175 202 175c60 0 115 -50 115 -101c0 -97 -98 -175 -192 -175c-75 0 -125 33 -125 101z" fill="currentColor"/>
</g>
</a>
</g>
</svg>
